<?xml version="1.0" encoding="UTF-8"?>
<!DOCTYPE svg PUBLIC "-//W3C//DTD SVG 1.1//EN" "http://www.w3.org/Graphics/SVG/1.1/DTD/svg11.dtd">
<svg xmlns="http://www.w3.org/2000/svg" version="1.1" width="74px" height="73px" style="shape-rendering:geometricPrecision; text-rendering:geometricPrecision; image-rendering:optimizeQuality; fill-rule:evenodd; clip-rule:evenodd" xmlns:xlink="http://www.w3.org/1999/xlink">
<g><path style="opacity:1" fill="#fefefe" d="M -0.5,-0.5 C 24.1667,-0.5 48.8333,-0.5 73.5,-0.5C 73.5,23.8333 73.5,48.1667 73.5,72.5C 48.8333,72.5 24.1667,72.5 -0.5,72.5C -0.5,48.1667 -0.5,23.8333 -0.5,-0.5 Z"/></g>
<g><path style="opacity:1" fill="#c5c5c5" d="M 50.5,10.5 C 50.5,11.1667 50.5,11.8333 50.5,12.5C 48.544,10.8249 47.2107,11.1582 46.5,13.5C 46.5,14.1667 46.1667,14.5 45.5,14.5C 45.5,13.5 45.5,12.5 45.5,11.5C 46.9187,10.5489 48.5853,10.2155 50.5,10.5 Z"/></g>
<g><path style="opacity:1" fill="#ababab" d="M 50.5,12.5 C 50.5,13.1667 50.5,13.8333 50.5,14.5C 49.2954,12.8624 47.9621,12.5291 46.5,13.5C 47.2107,11.1582 48.544,10.8249 50.5,12.5 Z"/></g>
<g><path style="opacity:1" fill="#f3f3f3" d="M 50.5,10.5 C 48.5853,10.2155 46.9187,10.5489 45.5,11.5C 42.431,12.7427 39.0977,13.4094 35.5,13.5C 32.3138,13.498 29.3138,13.1647 26.5,12.5C 32.2055,12.8288 37.8722,12.4954 43.5,11.5C 44.3481,10.0089 45.6814,9.34219 47.5,9.5C 48.7261,9.51954 49.7261,9.85287 50.5,10.5 Z"/></g>
<g><path style="opacity:1" fill="#999999" d="M 50.5,14.5 C 53.3447,15.3438 56.3447,16.0104 59.5,16.5C 60.3065,17.7281 61.3065,18.7281 62.5,19.5C 64.123,22.2153 64.7896,25.2153 64.5,28.5C 45.1667,28.5 25.8333,28.5 6.5,28.5C 6.44805,26.0971 6.78138,23.7638 7.5,21.5C 7.32842,20.5084 7.66175,19.8417 8.5,19.5C 13.4723,17.6575 18.3056,15.6575 23,13.5C 26.4022,14.7891 30.0688,15.4558 34,15.5C 37.6833,15.4986 41.1833,15.1652 44.5,14.5C 44.8333,14.5 45.1667,14.5 45.5,14.5C 46.1667,14.5 46.5,14.1667 46.5,13.5C 47.9621,12.5291 49.2954,12.8624 50.5,14.5 Z"/></g>
<g><path style="opacity:1" fill="#dcdcdc" d="M 26.5,12.5 C 29.3138,13.1647 32.3138,13.498 35.5,13.5C 39.0977,13.4094 42.431,12.7427 45.5,11.5C 45.5,12.5 45.5,13.5 45.5,14.5C 45.1667,14.5 44.8333,14.5 44.5,14.5C 38.1579,14.6662 31.8246,14.4995 25.5,14C 23.6627,10.8981 21.6627,10.7314 19.5,13.5C 19.5,12.5 19.5,11.5 19.5,10.5C 22.3878,9.98983 24.7211,10.6565 26.5,12.5 Z"/></g>
<g><path style="opacity:1" fill="#eaeaea" d="M 50.5,10.5 C 51.404,11.209 51.7373,12.209 51.5,13.5C 57.4218,12.0324 61.4218,14.0324 63.5,19.5C 63.1667,19.5 62.8333,19.5 62.5,19.5C 61.3065,18.7281 60.3065,17.7281 59.5,16.5C 59.3893,15.8826 59.056,15.3826 58.5,15C 55.854,14.5026 53.1873,14.3359 50.5,14.5C 50.5,13.8333 50.5,13.1667 50.5,12.5C 50.5,11.8333 50.5,11.1667 50.5,10.5 Z"/></g>
<g><path style="opacity:1" fill="#adadad" d="M 44.5,14.5 C 41.1833,15.1652 37.6833,15.4986 34,15.5C 30.0688,15.4558 26.4022,14.7891 23,13.5C 18.3056,15.6575 13.4723,17.6575 8.5,19.5C 8.5,19.1667 8.5,18.8333 8.5,18.5C 10.3885,17.396 12.0552,16.0627 13.5,14.5C 15.7354,14.7947 17.7354,14.4614 19.5,13.5C 21.6627,10.7314 23.6627,10.8981 25.5,14C 31.8246,14.4995 38.1579,14.6662 44.5,14.5 Z"/></g>
<g><path style="opacity:1" fill="#c8c8c8" d="M 50.5,14.5 C 53.1873,14.3359 55.854,14.5026 58.5,15C 59.056,15.3826 59.3893,15.8826 59.5,16.5C 56.3447,16.0104 53.3447,15.3438 50.5,14.5 Z"/></g>
<g><path style="opacity:1" fill="#e0e0e0" d="M 13.5,14.5 C 12.0552,16.0627 10.3885,17.396 8.5,18.5C 9.12933,16.0029 10.796,14.6696 13.5,14.5 Z"/></g>
<g><path style="opacity:1" fill="#e6e6e6" d="M 8.5,18.5 C 8.5,18.8333 8.5,19.1667 8.5,19.5C 7.66175,19.8417 7.32842,20.5084 7.5,21.5C 6.88258,21.6107 6.38258,21.944 6,22.5C 5.50454,24.4727 5.33788,26.4727 5.5,28.5C 3.5789,24.2553 4.5789,20.922 8.5,18.5 Z"/></g>
<g><path style="opacity:1" fill="#cfcfcf" d="M 62.5,19.5 C 62.8333,19.5 63.1667,19.5 63.5,19.5C 65.2681,22.1625 65.9347,25.1625 65.5,28.5C 65.1667,28.5 64.8333,28.5 64.5,28.5C 64.7896,25.2153 64.123,22.2153 62.5,19.5 Z"/></g>
<g><path style="opacity:1" fill="#c2c2c2" d="M 7.5,21.5 C 6.78138,23.7638 6.44805,26.0971 6.5,28.5C 25.8333,28.5 45.1667,28.5 64.5,28.5C 45.0071,29.4971 25.3404,29.8304 5.5,29.5C 5.5,29.1667 5.5,28.8333 5.5,28.5C 5.33788,26.4727 5.50454,24.4727 6,22.5C 6.38258,21.944 6.88258,21.6107 7.5,21.5 Z"/></g>
<g><path style="opacity:1" fill="#e9e9e9" d="M 64.5,28.5 C 64.8333,28.5 65.1667,28.5 65.5,28.5C 55.8564,29.8319 45.8564,30.4986 35.5,30.5C 25.3277,30.4998 15.3277,30.1665 5.5,29.5C 25.3404,29.8304 45.0071,29.4971 64.5,28.5 Z"/></g>
<g><path style="opacity:1" fill="#e7e7e7" d="M 65.5,33.5 C 65.5,33.8333 65.5,34.1667 65.5,34.5C 45.5,34.5 25.5,34.5 5.5,34.5C 15.1436,33.1681 25.1436,32.5014 35.5,32.5C 45.6723,32.5002 55.6723,32.8335 65.5,33.5 Z"/></g>
<g><path style="opacity:1" fill="#c0c0c0" d="M 5.5,34.5 C 25.5,34.5 45.5,34.5 65.5,34.5C 65.5,42.5 65.5,50.5 65.5,58.5C 65.7373,59.791 65.404,60.791 64.5,61.5C 64.5,52.8333 64.5,44.1667 64.5,35.5C 45.1667,35.5 25.8333,35.5 6.5,35.5C 6.5,43.5 6.5,51.5 6.5,59.5C 5.50728,51.3501 5.17395,43.0168 5.5,34.5 Z"/></g>
<g><path style="opacity:1" fill="#e4e4e4" d="M 5.5,34.5 C 5.17395,43.0168 5.50728,51.3501 6.5,59.5C 6.6596,61.153 7.32627,62.4863 8.5,63.5C 9.16667,64.5 9.83333,65.5 10.5,66.5C 7.58489,66.0874 5.75156,64.4207 5,61.5C 4.17602,52.3238 4.34269,43.3238 5.5,34.5 Z"/></g>
<g><path style="opacity:1" fill="#a0a0a0" d="M 64.5,61.5 C 63.6618,61.8417 63.3284,62.5084 63.5,63.5C 63.1667,63.5 62.8333,63.5 62.5,63.5C 63.4149,54.5404 63.7482,45.5404 63.5,36.5C 44.8333,36.5 26.1667,36.5 7.5,36.5C 7.35837,45.5243 7.6917,54.5243 8.5,63.5C 7.32627,62.4863 6.6596,61.153 6.5,59.5C 6.5,51.5 6.5,43.5 6.5,35.5C 25.8333,35.5 45.1667,35.5 64.5,35.5C 64.5,44.1667 64.5,52.8333 64.5,61.5 Z"/></g>
<g><path style="opacity:1" fill="#f5f5f5" d="M 65.5,33.5 C 66.2216,33.9175 66.7216,34.5842 67,35.5C 67.6667,42.5 67.6667,49.5 67,56.5C 66.7216,57.4158 66.2216,58.0825 65.5,58.5C 65.5,50.5 65.5,42.5 65.5,34.5C 65.5,34.1667 65.5,33.8333 65.5,33.5 Z"/></g>
<g><path style="opacity:1" fill="#9a9a9a" d="M 62.5,63.5 C 60.8656,64.2066 59.5323,65.3732 58.5,67C 42.4557,67.803 26.4557,67.6363 10.5,66.5C 9.83333,65.5 9.16667,64.5 8.5,63.5C 7.6917,54.5243 7.35837,45.5243 7.5,36.5C 26.1667,36.5 44.8333,36.5 63.5,36.5C 63.7482,45.5404 63.4149,54.5404 62.5,63.5 Z"/></g>
<g><path style="opacity:1" fill="#aeaeae" d="M 25.5,45.5 C 23.3792,45.3253 21.3792,45.6586 19.5,46.5C 19.9704,45.3065 20.9704,44.6399 22.5,44.5C 23.7261,44.5195 24.7261,44.8529 25.5,45.5 Z"/></g>
<g><path style="opacity:1" fill="#d6d6d6" d="M 50.5,45.5 C 50.5,46.1667 50.5,46.8333 50.5,47.5C 50.1667,47.5 49.8333,47.5 49.5,47.5C 48.2946,46.3143 46.9613,46.3143 45.5,47.5C 45.1667,47.5 44.8333,47.5 44.5,47.5C 45.9899,45.7202 47.9899,45.0535 50.5,45.5 Z"/></g>
<g><path style="opacity:1" fill="#adadad" d="M 50.5,45.5 C 47.9899,45.0535 45.9899,45.7202 44.5,47.5C 44.5,48.8333 44.5,50.1667 44.5,51.5C 45.9899,53.2798 47.9899,53.9465 50.5,53.5C 48.7116,54.6225 46.7116,54.7891 44.5,54C 43.1667,51 43.1667,48 44.5,45C 46.7116,44.2109 48.7116,44.3775 50.5,45.5 Z"/></g>
<g><path style="opacity:1" fill="#d2d2d2" d="M 25.5,45.5 C 26.4614,47.2646 26.7947,49.2646 26.5,51.5C 26.1667,51.5 25.8333,51.5 25.5,51.5C 26.1693,47.3241 24.6693,45.9907 21,47.5C 20.51,48.7932 20.3433,50.1266 20.5,51.5C 19.5489,50.0813 19.2155,48.4147 19.5,46.5C 21.3792,45.6586 23.3792,45.3253 25.5,45.5 Z"/></g>
<g><path style="opacity:1" fill="#f9f9f9" d="M 25.5,51.5 C 23.8333,51.5 22.1667,51.5 20.5,51.5C 20.3433,50.1266 20.51,48.7932 21,47.5C 24.6693,45.9907 26.1693,47.3241 25.5,51.5 Z"/></g>
<g><path style="opacity:1" fill="#f3f3f3" d="M 37.5,51.5 C 36.4324,52.4345 35.099,52.7678 33.5,52.5C 32.8333,52.5 32.5,52.1667 32.5,51.5C 32.5,50.1667 32.5,48.8333 32.5,47.5C 34.1172,46.962 35.7839,46.6287 37.5,46.5C 37.5,48.1667 37.5,49.8333 37.5,51.5 Z"/></g>
<g><path style="opacity:1" fill="#fbfbfb" d="M 49.5,47.5 C 49.5,48.5 49.5,49.5 49.5,50.5C 48.1667,50.5 46.8333,50.5 45.5,50.5C 45.5,49.5 45.5,48.5 45.5,47.5C 46.9613,46.3143 48.2946,46.3143 49.5,47.5 Z"/></g>
<g><path style="opacity:1" fill="#b3b3b3" d="M 38.5,51.5 C 38.5,49.5 38.5,47.5 38.5,45.5C 35.9899,45.0535 33.9899,45.7202 32.5,47.5C 32.5,48.8333 32.5,50.1667 32.5,51.5C 31.3775,49.7116 31.2109,47.7116 32,45.5C 34.9569,43.9226 37.6236,44.2559 40,46.5C 40.1667,47.3333 40.3333,48.1667 40.5,49C 40.3158,50.3756 39.6491,51.2089 38.5,51.5 Z"/></g>
<g><path style="opacity:1" fill="#d8d8d8" d="M 38.5,51.5 C 38.1667,51.5 37.8333,51.5 37.5,51.5C 37.5,49.8333 37.5,48.1667 37.5,46.5C 35.7839,46.6287 34.1172,46.962 32.5,47.5C 33.9899,45.7202 35.9899,45.0535 38.5,45.5C 38.5,47.5 38.5,49.5 38.5,51.5 Z"/></g>
<g><path style="opacity:1" fill="#e5e5e5" d="M 44.5,47.5 C 44.8333,47.5 45.1667,47.5 45.5,47.5C 45.5,48.5 45.5,49.5 45.5,50.5C 46.8333,50.5 48.1667,50.5 49.5,50.5C 49.5,49.5 49.5,48.5 49.5,47.5C 49.8333,47.5 50.1667,47.5 50.5,47.5C 51.7199,49.0496 51.7199,50.7163 50.5,52.5C 48.4352,52.4828 46.4352,52.1495 44.5,51.5C 44.5,50.1667 44.5,48.8333 44.5,47.5 Z"/></g>
<g><path style="opacity:1" fill="#c2c2c2" d="M 44.5,51.5 C 46.4352,52.1495 48.4352,52.4828 50.5,52.5C 50.5,52.8333 50.5,53.1667 50.5,53.5C 47.9899,53.9465 45.9899,53.2798 44.5,51.5 Z"/></g>
<g><path style="opacity:1" fill="#a8a8a8" d="M 19.5,46.5 C 19.2155,48.4147 19.5489,50.0813 20.5,51.5C 22.1667,54.1667 23.8333,54.1667 25.5,51.5C 25.8333,51.5 26.1667,51.5 26.5,51.5C 26.5858,52.4959 26.2524,53.3292 25.5,54C 21.2284,55.1974 18.5617,53.6974 17.5,49.5C 17.4534,47.9623 18.1201,46.9623 19.5,46.5 Z"/></g>
<g><path style="opacity:1" fill="#d3d3d3" d="M 20.5,51.5 C 22.1667,51.5 23.8333,51.5 25.5,51.5C 23.8333,54.1667 22.1667,54.1667 20.5,51.5 Z"/></g>
<g><path style="opacity:1" fill="#afafaf" d="M 37.5,51.5 C 37.8333,51.5 38.1667,51.5 38.5,51.5C 38.516,53.4841 37.516,54.4841 35.5,54.5C 34.2867,54.2528 33.62,53.5862 33.5,52.5C 35.099,52.7678 36.4324,52.4345 37.5,51.5 Z"/></g>
<g><path style="opacity:1" fill="#e0e0e0" d="M 62.5,63.5 C 62.8333,63.5 63.1667,63.5 63.5,63.5C 63.573,65.0269 62.9063,66.0269 61.5,66.5C 61.5569,65.391 61.8902,64.391 62.5,63.5 Z"/></g>
<g><path style="opacity:1" fill="#d3d3d3" d="M 62.5,63.5 C 61.8902,64.391 61.5569,65.391 61.5,66.5C 60.7109,66.7828 60.0442,67.2828 59.5,68C 43.5,68.6667 27.5,68.6667 11.5,68C 10.944,67.6174 10.6107,67.1174 10.5,66.5C 26.4557,67.6363 42.4557,67.803 58.5,67C 59.5323,65.3732 60.8656,64.2066 62.5,63.5 Z"/></g>
</svg>
