<?xml version="1.0" encoding="UTF-8"?>
<!DOCTYPE svg PUBLIC "-//W3C//DTD SVG 1.1//EN" "http://www.w3.org/Graphics/SVG/1.1/DTD/svg11.dtd">
<svg xmlns="http://www.w3.org/2000/svg" version="1.1" width="93px" height="95px" style="shape-rendering:geometricPrecision; text-rendering:geometricPrecision; image-rendering:optimizeQuality; fill-rule:evenodd; clip-rule:evenodd" xmlns:xlink="http://www.w3.org/1999/xlink">
<g><path style="opacity:1" fill="#fefefe" d="M -0.5,-0.5 C 30.5,-0.5 61.5,-0.5 92.5,-0.5C 92.5,31.1667 92.5,62.8333 92.5,94.5C 61.5,94.5 30.5,94.5 -0.5,94.5C -0.5,62.8333 -0.5,31.1667 -0.5,-0.5 Z"/></g>
<g><path style="opacity:1" fill="#ebebeb" d="M 46.5,13.5 C 45.5,13.5 44.5,13.5 43.5,13.5C 42.2946,12.3143 40.9613,12.3143 39.5,13.5C 40.1522,12.2749 41.3189,11.6083 43,11.5C 44.6811,11.6083 45.8478,12.2749 46.5,13.5 Z"/></g>
<g><path style="opacity:1" fill="#e9e9e9" d="M 77.5,29.5 C 77.5,29.1667 77.5,28.8333 77.5,28.5C 78.1524,27.5514 78.4857,26.3847 78.5,25C 78.6932,22.9919 78.0265,21.4919 76.5,20.5C 75.8333,19.8333 75.1667,19.1667 74.5,18.5C 71.4731,13.9729 67.4731,12.3062 62.5,13.5C 61.5489,14.9187 61.2155,16.5853 61.5,18.5C 58.7564,17.9283 57.9231,16.2617 59,13.5C 64.3747,10.6343 69.5413,10.9676 74.5,14.5C 75.9501,15.8498 76.6168,17.5165 76.5,19.5C 77.5,19.5 78.5,19.5 79.5,19.5C 80.069,23.3293 79.4023,26.6627 77.5,29.5 Z"/></g>
<g><path style="opacity:1" fill="#b5b5b5" d="M 43.5,13.5 C 43.8333,14.1667 44.1667,14.8333 44.5,15.5C 43.0413,15.4326 41.7079,15.7659 40.5,16.5C 40.5,14.5 41.5,13.5 43.5,13.5 Z"/></g>
<g><path style="opacity:1" fill="#dbdbdb" d="M 43.5,13.5 C 44.5,13.5 45.5,13.5 46.5,13.5C 46.5,14.8333 46.5,16.1667 46.5,17.5C 46.1667,17.5 45.8333,17.5 45.5,17.5C 45.6716,16.5084 45.3382,15.8417 44.5,15.5C 44.1667,14.8333 43.8333,14.1667 43.5,13.5 Z"/></g>
<g><path style="opacity:1" fill="#efefef" d="M 11.5,14.5 C 10.8902,15.391 10.5569,16.391 10.5,17.5C 9.39105,17.5569 8.39105,17.8902 7.5,18.5C 8.16667,16.5 9.5,15.1667 11.5,14.5 Z"/></g>
<g><path style="opacity:1" fill="#cfcfcf" d="M 23.5,17.5 C 23.4122,14.6913 21.9122,13.358 19,13.5C 16.0229,14.5469 13.1896,15.8802 10.5,17.5C 10.5569,16.391 10.8902,15.391 11.5,14.5C 11.8333,14.5 12.1667,14.5 12.5,14.5C 15.9007,12.6156 19.5674,12.1156 23.5,13C 24.8009,14.6155 24.8009,16.1155 23.5,17.5 Z"/></g>
<g><path style="opacity:1" fill="#ededed" d="M 16.5,21.5 C 19.0547,20.5389 21.388,19.2055 23.5,17.5C 24.8009,16.1155 24.8009,14.6155 23.5,13C 19.5674,12.1156 15.9007,12.6156 12.5,14.5C 12.8039,13.8501 13.1373,13.1835 13.5,12.5C 17.3803,11.2052 21.2136,11.2052 25,12.5C 26.498,19.5034 23.6647,22.5034 16.5,21.5 Z"/></g>
<g><path style="opacity:1" fill="#999999" d="M 44.5,15.5 C 45.3382,15.8417 45.6716,16.5084 45.5,17.5C 45.2627,18.791 45.596,19.791 46.5,20.5C 50.0181,22.9081 54.0181,24.2414 58.5,24.5C 59.391,25.1098 60.391,25.4431 61.5,25.5C 62.5387,27.5311 64.2054,28.8645 66.5,29.5C 66.5,30.1667 66.5,30.8333 66.5,31.5C 66.5,33.5 67.5,34.5 69.5,34.5C 69.5,35.1667 69.5,35.8333 69.5,36.5C 72.2799,44.9725 72.9465,53.6391 71.5,62.5C 71.2964,64.6854 70.6298,66.6854 69.5,68.5C 68.5,68.5 67.5,68.5 66.5,68.5C 66.298,70.9496 66.6314,73.283 67.5,75.5C 65.0661,75.6478 62.3995,75.8144 59.5,76C 58.7476,76.6708 58.4142,77.5041 58.5,78.5C 55.715,77.9162 54.0483,78.9162 53.5,81.5C 46.5,81.5 39.5,81.5 32.5,81.5C 30.6776,81.1692 29.0109,80.5025 27.5,79.5C 27.1667,79.5 26.8333,79.5 26.5,79.5C 24.4815,76.0709 22.1482,75.7376 19.5,78.5C 17.9519,78.8212 17.2852,79.8212 17.5,81.5C 16.5,81.5 15.5,81.5 14.5,81.5C 14.5,80.1667 14.5,78.8333 14.5,77.5C 15.1667,76.5 15.8333,75.5 16.5,74.5C 17.6225,72.7116 17.7891,70.7116 17,68.5C 16.3292,67.7476 15.4959,67.4142 14.5,67.5C 14.7361,64.7743 13.9028,62.441 12,60.5C 11.8333,57.5 11.6667,54.5 11.5,51.5C 11.3925,46.2956 12.0592,41.2956 13.5,36.5C 15.6326,34.9095 17.2993,32.9095 18.5,30.5C 20.1667,29.1667 21.8333,27.8333 23.5,26.5C 26.0087,25.2548 28.6754,24.2548 31.5,23.5C 31.8627,22.8165 32.1961,22.1499 32.5,21.5C 32.8333,21.5 33.1667,21.5 33.5,21.5C 37.0017,21.9236 39.335,20.5902 40.5,17.5C 40.5,17.1667 40.5,16.8333 40.5,16.5C 41.7079,15.7659 43.0413,15.4326 44.5,15.5 Z"/></g>
<g><path style="opacity:1" fill="#c4c4c4" d="M 62.5,13.5 C 62.5,14.1667 62.5,14.8333 62.5,15.5C 63.8333,16.8333 65.1667,18.1667 66.5,19.5C 65.1667,19.1667 63.8333,18.8333 62.5,18.5C 62.1667,18.5 61.8333,18.5 61.5,18.5C 61.2155,16.5853 61.5489,14.9187 62.5,13.5 Z"/></g>
<g><path style="opacity:1" fill="#a6a6a6" d="M 72.5,18.5 C 71.6236,18.3691 70.9569,18.7025 70.5,19.5C 71.1272,20.4168 71.4606,21.4168 71.5,22.5C 70.8333,22.1667 70.1667,21.8333 69.5,21.5C 69.0269,20.0937 68.0269,19.427 66.5,19.5C 65.1667,18.1667 63.8333,16.8333 62.5,15.5C 66.4941,14.1575 69.8274,15.1575 72.5,18.5 Z"/></g>
<g><path style="opacity:1" fill="#b9b9b9" d="M 74.5,18.5 C 73.8333,18.5 73.1667,18.5 72.5,18.5C 69.8274,15.1575 66.4941,14.1575 62.5,15.5C 62.5,14.8333 62.5,14.1667 62.5,13.5C 67.4731,12.3062 71.4731,13.9729 74.5,18.5 Z"/></g>
<g><path style="opacity:1" fill="#cdcdcd" d="M 43.5,13.5 C 41.5,13.5 40.5,14.5 40.5,16.5C 40.5,16.8333 40.5,17.1667 40.5,17.5C 38.262,19.1155 35.9287,20.4488 33.5,21.5C 33.1667,21.5 32.8333,21.5 32.5,21.5C 31.1667,21.8333 29.8333,22.1667 28.5,22.5C 29.5903,21.1429 30.9236,20.1429 32.5,19.5C 36.1075,19.5361 38.4408,17.8695 39.5,14.5C 39.5,14.1667 39.5,13.8333 39.5,13.5C 40.9613,12.3143 42.2946,12.3143 43.5,13.5 Z"/></g>
<g><path style="opacity:1" fill="#eeeeee" d="M 39.5,14.5 C 38.4408,17.8695 36.1075,19.5361 32.5,19.5C 34.9669,18.0125 37.3002,16.3458 39.5,14.5 Z"/></g>
<g><path style="opacity:1" fill="#e3e3e3" d="M 46.5,17.5 C 48.3797,17.2291 49.713,17.8958 50.5,19.5C 48.5168,19.8432 47.1834,19.1765 46.5,17.5 Z"/></g>
<g><path style="opacity:1" fill="#dadada" d="M 10.5,17.5 C 9.83333,18.8333 8.83333,19.8333 7.5,20.5C 7.5,20.1667 7.5,19.8333 7.5,19.5C 7.5,19.1667 7.5,18.8333 7.5,18.5C 8.39105,17.8902 9.39105,17.5569 10.5,17.5 Z"/></g>
<g><path style="opacity:1" fill="#c0c0c0" d="M 45.5,17.5 C 45.8333,17.5 46.1667,17.5 46.5,17.5C 47.1834,19.1765 48.5168,19.8432 50.5,19.5C 50.5,19.8333 50.5,20.1667 50.5,20.5C 49.1667,20.5 47.8333,20.5 46.5,20.5C 45.596,19.791 45.2627,18.791 45.5,17.5 Z"/></g>
<g><path style="opacity:1" fill="#dbdbdb" d="M 62.5,18.5 C 63.8333,18.8333 65.1667,19.1667 66.5,19.5C 68.0269,19.427 69.0269,20.0937 69.5,21.5C 69.1667,21.5 68.8333,21.5 68.5,21.5C 66.0326,21.2451 64.0326,20.2451 62.5,18.5 Z"/></g>
<g><path style="opacity:1" fill="#cecece" d="M 23.5,17.5 C 21.388,19.2055 19.0547,20.5389 16.5,21.5C 15.5,21.8333 14.8333,22.5 14.5,23.5C 14.1667,23.5 13.8333,23.5 13.5,23.5C 13.7329,21.9382 14.3995,20.6049 15.5,19.5C 18.1667,18.8333 20.8333,18.1667 23.5,17.5 Z"/></g>
<g><path style="opacity:1" fill="#e3e3e3" d="M 32.5,19.5 C 30.9236,20.1429 29.5903,21.1429 28.5,22.5C 27.8333,22.5 27.1667,22.5 26.5,22.5C 27.6874,20.0246 29.6874,19.0246 32.5,19.5 Z"/></g>
<g><path style="opacity:1" fill="#b1b1b1" d="M 40.5,17.5 C 39.335,20.5902 37.0017,21.9236 33.5,21.5C 35.9287,20.4488 38.262,19.1155 40.5,17.5 Z"/></g>
<g><path style="opacity:1" fill="#a6a6a6" d="M 46.5,20.5 C 47.8333,20.5 49.1667,20.5 50.5,20.5C 51.1667,20.5 51.8333,20.5 52.5,20.5C 54.1898,22.3417 56.1898,23.675 58.5,24.5C 54.0181,24.2414 50.0181,22.9081 46.5,20.5 Z"/></g>
<g><path style="opacity:1" fill="#c0c0c0" d="M 52.5,20.5 C 53.5,20.5 54.5,20.5 55.5,20.5C 56.287,22.1042 57.6203,22.7709 59.5,22.5C 60.1667,23.5 60.8333,24.5 61.5,25.5C 60.391,25.4431 59.391,25.1098 58.5,24.5C 56.1898,23.675 54.1898,22.3417 52.5,20.5 Z"/></g>
<g><path style="opacity:1" fill="#e9e9e9" d="M 55.5,20.5 C 57.153,20.6596 58.4863,21.3263 59.5,22.5C 57.6203,22.7709 56.287,22.1042 55.5,20.5 Z"/></g>
<g><path style="opacity:1" fill="#afafaf" d="M 74.5,18.5 C 75.1667,19.1667 75.8333,19.8333 76.5,20.5C 77.2653,23.0961 77.5987,25.7628 77.5,28.5C 75.901,28.7678 74.5676,28.4345 73.5,27.5C 74.5,27.5 75.5,27.5 76.5,27.5C 75.5392,24.5739 74.8726,21.5739 74.5,18.5 Z"/></g>
<g><path style="opacity:1" fill="#cfcfcf" d="M 24.5,22.5 C 25.1667,22.5 25.8333,22.5 26.5,22.5C 27.1667,22.5 27.8333,22.5 28.5,22.5C 26.7798,23.3077 25.1131,24.3077 23.5,25.5C 23.5569,24.391 23.8902,23.391 24.5,22.5 Z"/></g>
<g><path style="opacity:1" fill="#a9a9a9" d="M 32.5,21.5 C 32.1961,22.1499 31.8627,22.8165 31.5,23.5C 28.6754,24.2548 26.0087,25.2548 23.5,26.5C 23.5,26.1667 23.5,25.8333 23.5,25.5C 25.1131,24.3077 26.7798,23.3077 28.5,22.5C 29.8333,22.1667 31.1667,21.8333 32.5,21.5 Z"/></g>
<g><path style="opacity:1" fill="#e8e8e8" d="M 59.5,22.5 C 61.6188,22.4677 62.9522,23.4677 63.5,25.5C 62.8333,25.5 62.1667,25.5 61.5,25.5C 60.8333,24.5 60.1667,23.5 59.5,22.5 Z"/></g>
<g><path style="opacity:1" fill="#d4d4d4" d="M 69.5,21.5 C 70.1667,21.8333 70.8333,22.1667 71.5,22.5C 71.5,23.1667 71.5,23.8333 71.5,24.5C 70.0937,24.0269 69.427,23.0269 69.5,21.5 Z"/></g>
<g><path style="opacity:1" fill="#b4b4b4" d="M 71.5,22.5 C 73.256,23.5521 73.9227,25.2188 73.5,27.5C 72.8333,26.5 72.1667,25.5 71.5,24.5C 71.5,23.8333 71.5,23.1667 71.5,22.5 Z"/></g>
<g><path style="opacity:1" fill="#f2f2f2" d="M 7.5,19.5 C 7.5,19.8333 7.5,20.1667 7.5,20.5C 7.5,21.1667 7.5,21.8333 7.5,22.5C 4.9469,24.7045 4.9469,27.0379 7.5,29.5C 5.1104,29.3152 4.1104,27.9818 4.5,25.5C 4.46719,22.8984 5.46719,20.8984 7.5,19.5 Z"/></g>
<g><path style="opacity:1" fill="#dbdbdb" d="M 7.5,22.5 C 7.33982,24.1992 7.50649,25.8659 8,27.5C 11.5007,28.8622 13.334,27.5289 13.5,23.5C 13.8333,23.5 14.1667,23.5 14.5,23.5C 15.2647,28.9064 12.9313,30.9064 7.5,29.5C 4.9469,27.0379 4.9469,24.7045 7.5,22.5 Z"/></g>
<g><path style="opacity:1" fill="#aeaeae" d="M 23.5,17.5 C 20.8333,18.1667 18.1667,18.8333 15.5,19.5C 14.3995,20.6049 13.7329,21.9382 13.5,23.5C 13.334,27.5289 11.5007,28.8622 8,27.5C 7.50649,25.8659 7.33982,24.1992 7.5,22.5C 7.5,21.8333 7.5,21.1667 7.5,20.5C 8.83333,19.8333 9.83333,18.8333 10.5,17.5C 13.1896,15.8802 16.0229,14.5469 19,13.5C 21.9122,13.358 23.4122,14.6913 23.5,17.5 Z"/></g>
<g><path style="opacity:1" fill="#9c9c9c" d="M 15.5,19.5 C 14.5041,19.4142 13.6708,19.7476 13,20.5C 10.1828,29.4151 9.18283,29.4151 10,20.5C 11.5536,17.8975 13.7202,16.7308 16.5,17C 15.7476,17.6708 15.4142,18.5041 15.5,19.5 Z"/></g>
<g><path style="opacity:1" fill="#e9e9e9" d="M 24.5,22.5 C 23.8902,23.391 23.5569,24.391 23.5,25.5C 20.8333,26.1667 19.1667,27.8333 18.5,30.5C 15.9138,31.6385 14.2471,33.6385 13.5,36.5C 13.1667,36.5 12.8333,36.5 12.5,36.5C 12.6726,33.8205 13.6726,31.4872 15.5,29.5C 17.979,26.4352 20.979,24.1019 24.5,22.5 Z"/></g>
<g><path style="opacity:1" fill="#f0f0f0" d="M 68.5,21.5 C 68.8333,21.5 69.1667,21.5 69.5,21.5C 69.427,23.0269 70.0937,24.0269 71.5,24.5C 71.5,26.1667 71.5,27.8333 71.5,29.5C 69.6031,27.3025 68.6031,24.6358 68.5,21.5 Z"/></g>
<g><path style="opacity:1" fill="#9e9e9e" d="M 72.5,18.5 C 73.1667,18.5 73.8333,18.5 74.5,18.5C 74.8726,21.5739 75.5392,24.5739 76.5,27.5C 75.5,27.5 74.5,27.5 73.5,27.5C 73.9227,25.2188 73.256,23.5521 71.5,22.5C 71.4606,21.4168 71.1272,20.4168 70.5,19.5C 70.9569,18.7025 71.6236,18.3691 72.5,18.5 Z"/></g>
<g><path style="opacity:1" fill="#d0d0d0" d="M 76.5,20.5 C 78.0265,21.4919 78.6932,22.9919 78.5,25C 78.4857,26.3847 78.1524,27.5514 77.5,28.5C 77.5987,25.7628 77.2653,23.0961 76.5,20.5 Z"/></g>
<g><path style="opacity:1" fill="#bfbfbf" d="M 23.5,25.5 C 23.5,25.8333 23.5,26.1667 23.5,26.5C 21.8333,27.8333 20.1667,29.1667 18.5,30.5C 19.1667,27.8333 20.8333,26.1667 23.5,25.5 Z"/></g>
<g><path style="opacity:1" fill="#bebebe" d="M 61.5,25.5 C 62.1667,25.5 62.8333,25.5 63.5,25.5C 64.5,26.8333 65.5,28.1667 66.5,29.5C 64.2054,28.8645 62.5387,27.5311 61.5,25.5 Z"/></g>
<g><path style="opacity:1" fill="#dadada" d="M 71.5,24.5 C 72.1667,25.5 72.8333,26.5 73.5,27.5C 74.5676,28.4345 75.901,28.7678 77.5,28.5C 77.5,28.8333 77.5,29.1667 77.5,29.5C 75.5,29.5 73.5,29.5 71.5,29.5C 71.5,27.8333 71.5,26.1667 71.5,24.5 Z"/></g>
<g><path style="opacity:1" fill="#a3a3a3" d="M 44.5,31.5 C 44.5,31.1667 44.5,30.8333 44.5,30.5C 45.4959,30.4142 46.3292,30.7476 47,31.5C 46.9741,37.7362 47.8075,43.7362 49.5,49.5C 48.609,48.8902 47.609,48.5569 46.5,48.5C 46.666,43.1563 46.4994,37.8229 46,32.5C 45.6174,31.944 45.1174,31.6107 44.5,31.5 Z"/></g>
<g><path style="opacity:1" fill="#c8c8c8" d="M 66.5,29.5 C 67.1667,29.8333 67.8333,30.1667 68.5,30.5C 69.631,33.2553 71.2976,35.5886 73.5,37.5C 73.5,38.8333 73.5,40.1667 73.5,41.5C 73.1667,41.5 72.8333,41.5 72.5,41.5C 72.7271,39.0672 71.7271,37.4006 69.5,36.5C 69.5,35.8333 69.5,35.1667 69.5,34.5C 68.8333,33.1667 67.8333,32.1667 66.5,31.5C 66.5,30.8333 66.5,30.1667 66.5,29.5 Z"/></g>
<g><path style="opacity:1" fill="#a3a3a3" d="M 44.5,30.5 C 42.302,30.1201 40.6354,30.7868 39.5,32.5C 38.8826,32.6107 38.3826,32.944 38,33.5C 37.8333,36.1667 37.6667,38.8333 37.5,41.5C 37.5217,44.5902 38.1883,47.2568 39.5,49.5C 39.8333,49.5 40.1667,49.5 40.5,49.5C 40.4326,50.9587 40.7659,52.2921 41.5,53.5C 39.8997,52.748 38.3997,51.748 37,50.5C 36.3333,44.5 36.3333,38.5 37,32.5C 39.0256,29.5997 41.5256,28.933 44.5,30.5 Z"/></g>
<g><path style="opacity:1" fill="#f5f5f5" d="M 41.5,32.5 C 42.7498,32.5774 43.5831,33.244 44,34.5C 44.3333,38.5 44.6667,42.5 45,46.5C 45.2784,47.4158 45.7784,48.0825 46.5,48.5C 47.8333,50.1667 49.1667,51.8333 50.5,53.5C 50.5106,55.0174 51.1772,56.1841 52.5,57C 50.5273,57.4955 48.5273,57.6621 46.5,57.5C 46.5,55.5 45.5,54.5 43.5,54.5C 42.8897,52.5659 41.8897,50.8993 40.5,49.5C 40.1778,43.642 40.5111,37.9753 41.5,32.5 Z"/></g>
<g><path style="opacity:1" fill="#acacac" d="M 66.5,31.5 C 67.8333,32.1667 68.8333,33.1667 69.5,34.5C 67.5,34.5 66.5,33.5 66.5,31.5 Z"/></g>
<g><path style="opacity:1" fill="#efefef" d="M 68.5,30.5 C 71.669,31.681 73.3356,34.0144 73.5,37.5C 71.2976,35.5886 69.631,33.2553 68.5,30.5 Z"/></g>
<g><path style="opacity:1" fill="#cfcfcf" d="M 44.5,30.5 C 44.5,30.8333 44.5,31.1667 44.5,31.5C 43.209,31.2627 42.209,31.596 41.5,32.5C 40.5111,37.9753 40.1778,43.642 40.5,49.5C 40.1667,49.5 39.8333,49.5 39.5,49.5C 39.5,43.8333 39.5,38.1667 39.5,32.5C 40.6354,30.7868 42.302,30.1201 44.5,30.5 Z"/></g>
<g><path style="opacity:1" fill="#d8d8d8" d="M 41.5,32.5 C 42.209,31.596 43.209,31.2627 44.5,31.5C 45.1174,31.6107 45.6174,31.944 46,32.5C 46.4994,37.8229 46.666,43.1563 46.5,48.5C 45.7784,48.0825 45.2784,47.4158 45,46.5C 44.6667,42.5 44.3333,38.5 44,34.5C 43.5831,33.244 42.7498,32.5774 41.5,32.5 Z"/></g>
<g><path style="opacity:1" fill="#c6c6c6" d="M 18.5,30.5 C 17.2993,32.9095 15.6326,34.9095 13.5,36.5C 14.2471,33.6385 15.9138,31.6385 18.5,30.5 Z"/></g>
<g><path style="opacity:1" fill="#b3b3b3" d="M 39.5,32.5 C 39.5,38.1667 39.5,43.8333 39.5,49.5C 38.1883,47.2568 37.5217,44.5902 37.5,41.5C 37.6667,38.8333 37.8333,36.1667 38,33.5C 38.3826,32.944 38.8826,32.6107 39.5,32.5 Z"/></g>
<g><path style="opacity:1" fill="#efefef" d="M 12.5,36.5 C 11.3443,38.8239 10.3443,41.1572 9.5,43.5C 9.33788,41.4727 9.50454,39.4727 10,37.5C 10.6708,36.7476 11.5041,36.4142 12.5,36.5 Z"/></g>
<g><path style="opacity:1" fill="#b9b9b9" d="M 72.5,41.5 C 72.8333,41.5 73.1667,41.5 73.5,41.5C 73.8333,42.8333 74.1667,44.1667 74.5,45.5C 74.5,46.1667 74.5,46.8333 74.5,47.5C 72.9261,45.8984 72.2594,43.8984 72.5,41.5 Z"/></g>
<g><path style="opacity:1" fill="#c0c0c0" d="M 12.5,36.5 C 12.8333,36.5 13.1667,36.5 13.5,36.5C 12.0592,41.2956 11.3925,46.2956 11.5,51.5C 11.6667,54.5 11.8333,57.5 12,60.5C 13.9028,62.441 14.7361,64.7743 14.5,67.5C 13.8724,65.3384 12.539,63.6718 10.5,62.5C 9.83537,56.523 9.50204,50.523 9.5,44.5C 9.5,44.1667 9.5,43.8333 9.5,43.5C 10.3443,41.1572 11.3443,38.8239 12.5,36.5 Z"/></g>
<g><path style="opacity:1" fill="#c7c7c7" d="M 74.5,45.5 C 76.3144,52.6915 75.4811,59.6915 72,66.5C 71.2917,67.3805 70.4584,68.0472 69.5,68.5C 70.6298,66.6854 71.2964,64.6854 71.5,62.5C 74.133,57.9675 75.133,52.9675 74.5,47.5C 74.5,46.8333 74.5,46.1667 74.5,45.5 Z"/></g>
<g><path style="opacity:1" fill="#e6e6e6" d="M 73.5,41.5 C 74.5,41.5 75.5,41.5 76.5,41.5C 78.8019,53.7535 76.1352,64.4201 68.5,73.5C 67.9569,73.44 67.6236,73.1067 67.5,72.5C 68.6302,71.3777 69.2969,70.0443 69.5,68.5C 70.4584,68.0472 71.2917,67.3805 72,66.5C 75.4811,59.6915 76.3144,52.6915 74.5,45.5C 74.1667,44.1667 73.8333,42.8333 73.5,41.5 Z"/></g>
<g><path style="opacity:1" fill="#c4c4c4" d="M 46.5,48.5 C 47.609,48.5569 48.609,48.8902 49.5,49.5C 50.7927,51.2959 52.2927,52.9625 54,54.5C 54.4935,56.1341 54.6602,57.8008 54.5,59.5C 54.1667,59.5 53.8333,59.5 53.5,59.5C 53.9754,56.6874 52.9754,54.6874 50.5,53.5C 49.1667,51.8333 47.8333,50.1667 46.5,48.5 Z"/></g>
<g><path style="opacity:1" fill="#a7a7a7" d="M 69.5,36.5 C 71.7271,37.4006 72.7271,39.0672 72.5,41.5C 72.2594,43.8984 72.9261,45.8984 74.5,47.5C 75.133,52.9675 74.133,57.9675 71.5,62.5C 72.9465,53.6391 72.2799,44.9725 69.5,36.5 Z"/></g>
<g><path style="opacity:1" fill="#d2d2d2" d="M 40.5,49.5 C 41.8897,50.8993 42.8897,52.5659 43.5,54.5C 42.8333,54.1667 42.1667,53.8333 41.5,53.5C 40.7659,52.2921 40.4326,50.9587 40.5,49.5 Z"/></g>
<g><path style="opacity:1" fill="#cdcdcd" d="M 43.5,54.5 C 45.5,54.5 46.5,55.5 46.5,57.5C 45.8333,57.1667 45.1667,56.8333 44.5,56.5C 44.1667,55.8333 43.8333,55.1667 43.5,54.5 Z"/></g>
<g><path style="opacity:1" fill="#e6e6e6" d="M 50.5,53.5 C 52.9754,54.6874 53.9754,56.6874 53.5,59.5C 51.7085,59.634 50.0418,59.3007 48.5,58.5C 47.5084,58.6716 46.8417,58.3382 46.5,57.5C 48.5273,57.6621 50.5273,57.4955 52.5,57C 51.1772,56.1841 50.5106,55.0174 50.5,53.5 Z"/></g>
<g><path style="opacity:1" fill="#ededed" d="M 9.5,44.5 C 9.50204,50.523 9.83537,56.523 10.5,62.5C 8.03488,59.3996 7.03488,55.7329 7.5,51.5C 7.52856,48.7305 8.19522,46.3972 9.5,44.5 Z"/></g>
<g><path style="opacity:1" fill="#aaaaaa" d="M 44.5,56.5 C 45.1667,56.8333 45.8333,57.1667 46.5,57.5C 46.8417,58.3382 47.5084,58.6716 48.5,58.5C 48.5,59.1667 48.5,59.8333 48.5,60.5C 46.2273,60.0432 44.894,58.7099 44.5,56.5 Z"/></g>
<g><path style="opacity:1" fill="#cfcfcf" d="M 48.5,58.5 C 50.0418,59.3007 51.7085,59.634 53.5,59.5C 52.0813,60.4511 50.4147,60.7845 48.5,60.5C 48.5,59.8333 48.5,59.1667 48.5,58.5 Z"/></g>
<g><path style="opacity:1" fill="#b4b4b4" d="M 53.5,59.5 C 53.8333,59.5 54.1667,59.5 54.5,59.5C 54.0296,60.6935 53.0296,61.3601 51.5,61.5C 50.2739,61.4805 49.2739,61.1471 48.5,60.5C 50.4147,60.7845 52.0813,60.4511 53.5,59.5 Z"/></g>
<g><path style="opacity:1" fill="#dddddd" d="M 10.5,62.5 C 12.539,63.6718 13.8724,65.3384 14.5,67.5C 14.8333,68.1667 15.1667,68.8333 15.5,69.5C 14.5041,69.5858 13.6708,69.2524 13,68.5C 12.3448,66.3716 11.5114,64.3716 10.5,62.5 Z"/></g>
<g><path style="opacity:1" fill="#b5b5b5" d="M 14.5,67.5 C 15.4959,67.4142 16.3292,67.7476 17,68.5C 17.7891,70.7116 17.6225,72.7116 16.5,74.5C 16.7845,72.5853 16.4511,70.9187 15.5,69.5C 15.1667,68.8333 14.8333,68.1667 14.5,67.5 Z"/></g>
<g><path style="opacity:1" fill="#b2b2b2" d="M 69.5,68.5 C 69.2969,70.0443 68.6302,71.3777 67.5,72.5C 67.6236,73.1067 67.9569,73.44 68.5,73.5C 68.8333,74.1667 69.1667,74.8333 69.5,75.5C 68.8333,75.5 68.1667,75.5 67.5,75.5C 66.6314,73.283 66.298,70.9496 66.5,68.5C 67.5,68.5 68.5,68.5 69.5,68.5 Z"/></g>
<g><path style="opacity:1" fill="#a2a2a2" d="M 67.5,75.5 C 68.1667,75.5 68.8333,75.5 69.5,75.5C 70.2186,77.7638 70.552,80.0971 70.5,82.5C 67.8844,81.6367 65.8844,79.9701 64.5,77.5C 62.3619,76.1919 60.3619,76.5252 58.5,78.5C 58.4142,77.5041 58.7476,76.6708 59.5,76C 62.3995,75.8144 65.0661,75.6478 67.5,75.5 Z"/></g>
<g><path style="opacity:1" fill="#ebebeb" d="M 15.5,73.5 C 14.3995,74.6049 13.7329,75.9382 13.5,77.5C 13.5,79.1667 13.5,80.8333 13.5,82.5C 13.5569,83.609 13.8902,84.609 14.5,85.5C 9.71531,82.5895 9.21531,78.9228 13,74.5C 13.6708,73.7476 14.5041,73.4142 15.5,73.5 Z"/></g>
<g><path style="opacity:1" fill="#cdcdcd" d="M 15.5,69.5 C 16.4511,70.9187 16.7845,72.5853 16.5,74.5C 15.8333,75.5 15.1667,76.5 14.5,77.5C 14.1667,77.5 13.8333,77.5 13.5,77.5C 13.7329,75.9382 14.3995,74.6049 15.5,73.5C 15.5,72.1667 15.5,70.8333 15.5,69.5 Z"/></g>
<g><path style="opacity:1" fill="#b9b9b9" d="M 26.5,79.5 C 24.9557,79.2969 23.6223,78.6302 22.5,77.5C 21.5832,78.1272 20.5832,78.4606 19.5,78.5C 22.1482,75.7376 24.4815,76.0709 26.5,79.5 Z"/></g>
<g><path style="opacity:1" fill="#d9d9d9" d="M 26.5,79.5 C 26.8333,79.5 27.1667,79.5 27.5,79.5C 27.5,79.8333 27.5,80.1667 27.5,80.5C 27.1667,80.5 26.8333,80.5 26.5,80.5C 24.1944,80.0074 21.861,79.6741 19.5,79.5C 19.5,79.1667 19.5,78.8333 19.5,78.5C 20.5832,78.4606 21.5832,78.1272 22.5,77.5C 23.6223,78.6302 24.9557,79.2969 26.5,79.5 Z"/></g>
<g><path style="opacity:1" fill="#bfbfbf" d="M 64.5,77.5 C 62.6203,77.2291 61.287,77.8958 60.5,79.5C 60.1667,79.5 59.8333,79.5 59.5,79.5C 59.1667,79.5 58.8333,79.5 58.5,79.5C 58.5,79.1667 58.5,78.8333 58.5,78.5C 60.3619,76.5252 62.3619,76.1919 64.5,77.5 Z"/></g>
<g><path style="opacity:1" fill="#b9b9b9" d="M 69.5,75.5 C 70.5,75.8333 71.1667,76.5 71.5,77.5C 71.7845,79.4147 71.4511,81.0813 70.5,82.5C 70.552,80.0971 70.2186,77.7638 69.5,75.5 Z"/></g>
<g><path style="opacity:1" fill="#cfcfcf" d="M 64.5,77.5 C 65.8844,79.9701 67.8844,81.6367 70.5,82.5C 71.4511,81.0813 71.7845,79.4147 71.5,77.5C 73.9202,82.8204 72.2535,84.987 66.5,84C 65.4582,82.082 64.2915,80.2487 63,78.5C 62.3292,79.2524 61.4959,79.5858 60.5,79.5C 61.287,77.8958 62.6203,77.2291 64.5,77.5 Z"/></g>
<g><path style="opacity:1" fill="#c8c8c8" d="M 27.5,79.5 C 29.0109,80.5025 30.6776,81.1692 32.5,81.5C 33.5,82.1667 34.5,82.8333 35.5,83.5C 34.5,83.5 33.5,83.5 32.5,83.5C 32.1667,83.5 31.8333,83.5 31.5,83.5C 29.9236,82.8571 28.5903,81.8571 27.5,80.5C 27.5,80.1667 27.5,79.8333 27.5,79.5 Z"/></g>
<g><path style="opacity:1" fill="#aaaaaa" d="M 58.5,78.5 C 58.5,78.8333 58.5,79.1667 58.5,79.5C 57.1805,80.9418 55.5138,81.6085 53.5,81.5C 54.0483,78.9162 55.715,77.9162 58.5,78.5 Z"/></g>
<g><path style="opacity:1" fill="#b4b4b4" d="M 13.5,77.5 C 13.8333,77.5 14.1667,77.5 14.5,77.5C 14.5,78.8333 14.5,80.1667 14.5,81.5C 15.5,81.5 16.5,81.5 17.5,81.5C 17.2852,79.8212 17.9519,78.8212 19.5,78.5C 19.5,78.8333 19.5,79.1667 19.5,79.5C 19.5,79.8333 19.5,80.1667 19.5,80.5C 18.596,81.209 18.2627,82.209 18.5,83.5C 16.7085,83.634 15.0418,83.3007 13.5,82.5C 13.5,80.8333 13.5,79.1667 13.5,77.5 Z"/></g>
<g><path style="opacity:1" fill="#d9d9d9" d="M 58.5,79.5 C 58.8333,79.5 59.1667,79.5 59.5,79.5C 58.4726,81.1942 57.1392,82.5275 55.5,83.5C 54.5,83.5 53.5,83.5 52.5,83.5C 51.8333,83.5 51.1667,83.5 50.5,83.5C 51.5,82.8333 52.5,82.1667 53.5,81.5C 55.5138,81.6085 57.1805,80.9418 58.5,79.5 Z"/></g>
<g><path style="opacity:1" fill="#ededed" d="M 26.5,80.5 C 26.8333,80.5 27.1667,80.5 27.5,80.5C 28.5903,81.8571 29.9236,82.8571 31.5,83.5C 29.8333,83.5 28.1667,83.5 26.5,83.5C 26.5,82.5 26.5,81.5 26.5,80.5 Z"/></g>
<g><path style="opacity:1" fill="#b7b7b7" d="M 32.5,81.5 C 39.5,81.5 46.5,81.5 53.5,81.5C 52.5,82.1667 51.5,82.8333 50.5,83.5C 45.8809,84.3136 41.2142,84.6469 36.5,84.5C 35.8333,84.5 35.5,84.1667 35.5,83.5C 34.5,82.8333 33.5,82.1667 32.5,81.5 Z"/></g>
<g><path style="opacity:1" fill="#eeeeee" d="M 68.5,73.5 C 70.3904,73.2965 71.8904,73.9632 73,75.5C 73.4983,78.8168 73.665,82.1501 73.5,85.5C 70.8127,85.6641 68.146,85.4974 65.5,85C 64.6866,83.197 63.5199,81.697 62,80.5C 60.1397,82.2009 57.973,83.2009 55.5,83.5C 57.1392,82.5275 58.4726,81.1942 59.5,79.5C 59.8333,79.5 60.1667,79.5 60.5,79.5C 61.4959,79.5858 62.3292,79.2524 63,78.5C 64.2915,80.2487 65.4582,82.082 66.5,84C 72.2535,84.987 73.9202,82.8204 71.5,77.5C 71.1667,76.5 70.5,75.8333 69.5,75.5C 69.1667,74.8333 68.8333,74.1667 68.5,73.5 Z"/></g>
<g><path style="opacity:1" fill="#dedede" d="M 19.5,80.5 C 20.1667,84.5 18.5,86.1667 14.5,85.5C 13.8902,84.609 13.5569,83.609 13.5,82.5C 15.0418,83.3007 16.7085,83.634 18.5,83.5C 18.2627,82.209 18.596,81.209 19.5,80.5 Z"/></g>
<g><path style="opacity:1" fill="#f2f2f2" d="M 32.5,83.5 C 33.5,83.5 34.5,83.5 35.5,83.5C 35.5,84.1667 35.8333,84.5 36.5,84.5C 40.6463,85.647 44.9796,85.8136 49.5,85C 50.056,84.6174 50.3893,84.1174 50.5,83.5C 51.1667,83.5 51.8333,83.5 52.5,83.5C 52.0472,84.4584 51.3805,85.2917 50.5,86C 45.1667,86.6667 39.8333,86.6667 34.5,86C 33.244,85.5831 32.5774,84.7498 32.5,83.5 Z"/></g>
<g><path style="opacity:1" fill="#dedede" d="M 50.5,83.5 C 50.3893,84.1174 50.056,84.6174 49.5,85C 44.9796,85.8136 40.6463,85.647 36.5,84.5C 41.2142,84.6469 45.8809,84.3136 50.5,83.5 Z"/></g>
</svg>
