<?xml version="1.0" encoding="UTF-8"?>
<!DOCTYPE svg PUBLIC "-//W3C//DTD SVG 1.1//EN" "http://www.w3.org/Graphics/SVG/1.1/DTD/svg11.dtd">
<svg xmlns="http://www.w3.org/2000/svg" version="1.1" width="69px" height="65px" style="shape-rendering:geometricPrecision; text-rendering:geometricPrecision; image-rendering:optimizeQuality; fill-rule:evenodd; clip-rule:evenodd" xmlns:xlink="http://www.w3.org/1999/xlink">
<g><path style="opacity:1" fill="#fefefe" d="M -0.5,-0.5 C 22.5,-0.5 45.5,-0.5 68.5,-0.5C 68.5,21.1667 68.5,42.8333 68.5,64.5C 45.5,64.5 22.5,64.5 -0.5,64.5C -0.5,42.8333 -0.5,21.1667 -0.5,-0.5 Z"/></g>
<g><path style="opacity:1" fill="#e0e0e0" d="M 11.5,4.5 C 10.5,4.5 9.5,4.5 8.5,4.5C 8.5,22.8333 8.5,41.1667 8.5,59.5C 9.5,59.5 10.5,59.5 11.5,59.5C 10.4324,60.4345 9.09903,60.7678 7.5,60.5C 7.5,41.5 7.5,22.5 7.5,3.5C 9.09903,3.23219 10.4324,3.56552 11.5,4.5 Z"/></g>
<g><path style="opacity:1" fill="#cfcfcf" d="M 11.5,4.5 C 11.5,22.8333 11.5,41.1667 11.5,59.5C 10.5,59.5 9.5,59.5 8.5,59.5C 8.5,41.1667 8.5,22.8333 8.5,4.5C 9.5,4.5 10.5,4.5 11.5,4.5 Z"/></g>
<g><path style="opacity:1" fill="#dcdcdc" d="M 30.5,26.5 C 29.1667,26.5 27.8333,26.5 26.5,26.5C 28.0018,23.9781 29.3351,23.9781 30.5,26.5 Z"/></g>
<g><path style="opacity:1" fill="#bbbbbb" d="M 26.5,26.5 C 27.8333,26.5 29.1667,26.5 30.5,26.5C 33.6306,29.1288 36.6306,31.9621 39.5,35C 40.448,35.4828 41.448,35.6495 42.5,35.5C 46.2347,33.2754 49.568,30.442 52.5,27C 53.448,26.5172 54.448,26.3505 55.5,26.5C 55.2671,28.0618 54.6005,29.3951 53.5,30.5C 53.5,30.8333 53.5,31.1667 53.5,31.5C 51.5,31.5 50.5,32.5 50.5,34.5C 49.8333,34.5 49.5,34.8333 49.5,35.5C 47.5,35.5 46.5,36.5 46.5,38.5C 46.1667,38.5 45.8333,38.5 45.5,38.5C 43.283,39.3686 40.9496,39.702 38.5,39.5C 34.7117,36.8529 31.2117,33.8529 28,30.5C 27.2086,29.255 26.7086,27.9217 26.5,26.5 Z"/></g>
<g><path style="opacity:1" fill="#cfcfcf" d="M 55.5,26.5 C 54.448,26.3505 53.448,26.5172 52.5,27C 49.568,30.442 46.2347,33.2754 42.5,35.5C 45.6293,31.8691 48.9626,28.3691 52.5,25C 53.9976,24.4153 54.9976,24.9153 55.5,26.5 Z"/></g>
<g><path style="opacity:1" fill="#e6e6e6" d="M 55.5,26.5 C 56.9758,28.7089 56.3091,30.0423 53.5,30.5C 54.6005,29.3951 55.2671,28.0618 55.5,26.5 Z"/></g>
<g><path style="opacity:1" fill="#e6e6e6" d="M 53.5,31.5 C 52.8333,32.8333 51.8333,33.8333 50.5,34.5C 50.5,32.5 51.5,31.5 53.5,31.5 Z"/></g>
<g><path style="opacity:1" fill="#e7e7e7" d="M 49.5,35.5 C 48.8333,36.8333 47.8333,37.8333 46.5,38.5C 46.5,36.5 47.5,35.5 49.5,35.5 Z"/></g>
<g><path style="opacity:1" fill="#dcdcdc" d="M 45.5,38.5 C 44.8478,39.7251 43.6811,40.3917 42,40.5C 40.6153,40.4857 39.4486,40.1524 38.5,39.5C 40.9496,39.702 43.283,39.3686 45.5,38.5 Z"/></g>
</svg>
